<svg width="52" height="52" viewBox="0 0 52 52" fill="none" xmlns="http://www.w3.org/2000/svg">
<rect width="52" height="52" rx="26" fill="#F1F4FF"/>
<g clip-path="url(#clip0_137_2768)">
<path d="M18.376 23.25C18.0998 23.25 17.876 23.4739 17.876 23.75V32C17.876 32.3342 18.011 32.653 18.2486 32.8868C18.486 33.1202 18.8062 33.25 19.1383 33.25H32.8608C33.193 33.25 33.5132 33.1202 33.7506 32.8868C33.9882 32.653 34.1232 32.3342 34.1232 32V24.5C34.1232 24.1658 33.9882 23.847 33.7506 23.6132C33.5132 23.3797 33.193 23.25 32.8608 23.25H18.376ZM31.0738 19.25C31.0738 18.9739 30.8499 18.75 30.5738 18.75H19.1383C18.8062 18.75 18.486 18.8797 18.2486 19.1132C18.011 19.347 17.876 19.6658 17.876 20V22.25C17.876 22.5261 18.0998 22.75 18.376 22.75H30.5738C30.8499 22.75 31.0738 22.5261 31.0738 22.25V19.25ZM30.0738 28.5H28.7867V28H30.0738V28.5Z" fill="#0765FF" stroke="white" stroke-linejoin="round"/>
<g clip-path="url(#clip1_137_2768)">
<path d="M18.377 23.75H32.8618C33.064 23.75 33.2579 23.829 33.4009 23.9697C33.5439 24.1103 33.6242 24.3011 33.6242 24.5V32C33.6242 32.1989 33.5439 32.3897 33.4009 32.5303C33.2579 32.671 33.064 32.75 32.8618 32.75H19.1393C18.9371 32.75 18.7432 32.671 18.6002 32.5303C18.4573 32.3897 18.377 32.1989 18.377 32V23.75ZM19.1393 19.25H30.5747V22.25H18.377V20C18.377 19.8011 18.4573 19.6103 18.6002 19.4697C18.7432 19.329 18.9371 19.25 19.1393 19.25ZM28.2877 27.5V29H30.5747V27.5H28.2877Z" fill="#0765FF"/>
</g>
</g>
<defs>
<clipPath id="clip0_137_2768">
<rect width="18.2967" height="18" fill="white" transform="translate(16.8516 17)"/>
</clipPath>
<clipPath id="clip1_137_2768">
<rect width="16" height="4" fill="white" transform="translate(17.7695 19)"/>
</clipPath>
</defs>
</svg>
